HIERARCHY
ROOT Hips
{
	OFFSET 0.000000 0.000000 0.000000 
	CHANNELS 6 Xposition Yposition Zposition Zrotation Xrotation Yrotation
	JOINT Spine
	{
		OFFSET -0.000000 8.061080 0.000000 
		CHANNELS 3 Zrotation Xrotation Yrotation
		JOINT Spine1
		{
			OFFSET -0.000000 20.532700 0.000000 
			CHANNELS 3 Zrotation Xrotation Yrotation
			JOINT Neck
			{
				OFFSET -0.000000 22.498800 0.000000 
				CHANNELS 3 Zrotation Xrotation Yrotation
				JOINT Head
				{
					OFFSET -0.000000 15.237400 1.966120 
					CHANNELS 3 Zrotation Xrotation Yrotation
					End Site
					{
						OFFSET -0.000000 19.661222 0.000000 
					}
				}
			}
			JOINT LeftShoulder
			{
				OFFSET 3.894670 16.042299 -0.398189 
				CHANNELS 3 Zrotation Xrotation Yrotation
				JOINT LeftArm
				{
					OFFSET 19.709600 0.000000 0.000000 
					CHANNELS 3 Zrotation Xrotation Yrotation
					JOINT LeftForeArm
					{
						OFFSET 25.566900 0.000000 0.000000 
						CHANNELS 3 Zrotation Xrotation Yrotation
						JOINT LeftHand
						{
							OFFSET 25.401899 0.000000 0.000000 
							CHANNELS 3 Zrotation Xrotation Yrotation
							End Site
							{
								OFFSET 14.745918 0.000000 0.000000 
							}
						}
					}
				}
			}
			JOINT RightShoulder
			{
				OFFSET -3.930780 16.042299 -0.398189 
				CHANNELS 3 Zrotation Xrotation Yrotation
				JOINT RightArm
				{
					OFFSET -19.709600 0.000000 0.000000 
					CHANNELS 3 Zrotation Xrotation Yrotation
					JOINT RightForeArm
					{
						OFFSET -25.566900 0.000000 0.000000 
						CHANNELS 3 Zrotation Xrotation Yrotation
						JOINT RightHand
						{
							OFFSET -25.401899 0.000000 0.000000 
							CHANNELS 3 Zrotation Xrotation Yrotation
							End Site
							{
								OFFSET -14.745918 0.000000 0.000000 
							}
						}
					}
				}
			}
		}
	}
	JOINT LeftUpLeg
	{
		OFFSET 9.830590 0.000000 0.000000 
		CHANNELS 3 Zrotation Xrotation Yrotation
		JOINT LeftLeg
		{
			OFFSET -0.000000 -46.474800 0.000000 
			CHANNELS 3 Zrotation Xrotation Yrotation
			JOINT LeftFoot
			{
				OFFSET -0.000000 -30.290499 0.000000 
				CHANNELS 3 Zrotation Xrotation Yrotation
				JOINT LeftToeBase
				{
					OFFSET -0.000000 -6.389880 14.745900 
					CHANNELS 3 Zrotation Xrotation Yrotation
					End Site
					{
						OFFSET -0.000000 0.000000 3.932244 
					}
				}
			}
		}
	}
	JOINT RightUpLeg
	{
		OFFSET -9.830590 0.000000 0.000000 
		CHANNELS 3 Zrotation Xrotation Yrotation
		JOINT RightLeg
		{
			OFFSET -0.000000 -46.474800 0.000000 
			CHANNELS 3 Zrotation Xrotation Yrotation
			JOINT RightFoot
			{
				OFFSET -0.000000 -30.290499 0.000000 
				CHANNELS 3 Zrotation Xrotation Yrotation
				JOINT RightToeBase
				{
					OFFSET -0.000000 -6.389880 14.745900 
					CHANNELS 3 Zrotation Xrotation Yrotation
					End Site
					{
						OFFSET -0.000000 0.000000 3.932244 
					}
				}
			}
		}
	}
}
MOTION
Frames: 6
Frame Time: 0.010000
-25.141766 88.139168 21.816620 9.148566 0.339572 -89.084740 0.742586 -9.618732 1.459608 -0.091622 1.512069 0.466912 -2.449950 6.095555 -0.367033 -2.968805 8.288887 -0.244692 5.917831 8.026336 -3.166615 -68.505806 24.577755 -24.372053 -11.652039 -1.081198 -2.854919 9.660954 -1.037163 3.967000 -11.418609 9.705953 -9.672271 50.418007 54.681961 46.091263 3.497132 -11.026880 5.964325 4.592609 -11.111551 2.395396 1.239680 -6.553047 -10.850965 -4.319824 -4.643517 -10.401870 3.202878 14.545792 24.006493 0.000000 0.000000 0.000000 -10.824558 -10.595413 -2.614310 -0.849826 17.358006 -2.262676 0.000000 0.000000 0.000000 0.000000 0.000000 0.000000 
-25.418997 88.136192 21.983639 9.168402 0.330013 -89.322639 0.622335 -9.530107 1.158549 0.007537 1.420053 0.368653 -2.357766 6.016680 -0.264183 -3.068213 8.302089 -0.099301 5.913404 7.633010 -3.419944 -68.144875 24.677048 -24.600546 -11.696821 -1.152783 -2.943247 9.796963 -1.124088 3.851550 -11.380119 9.724715 -9.726425 50.841450 54.593967 45.622852 3.548549 -10.949876 5.928364 4.585143 -11.038668 2.334318 1.133581 -6.350167 -10.686319 -4.270791 -4.696306 -10.003770 3.384371 14.470264 23.605375 0.000000 0.000000 0.000000 -10.953253 -11.276826 -2.489760 -0.792846 18.439068 -2.381127 0.000000 0.000000 0.000000 0.000000 0.000000 0.000000 
-25.693186 88.133308 22.142246 9.188859 0.321249 -89.559494 0.506844 -9.441840 0.858803 0.102452 1.334099 0.270928 -2.260645 5.936953 -0.162042 -3.169201 8.313162 0.046311 5.911866 7.240160 -3.671682 -67.772575 24.791595 -24.835230 -11.733259 -1.234109 -3.036369 9.919146 -1.221778 3.736472 -11.336923 9.737686 -9.776860 51.269230 54.497097 45.145611 3.603934 -10.870898 5.894489 4.575032 -10.964217 2.269775 1.030782 -6.151618 -10.520176 -4.219666 -4.744805 -9.613922 3.556059 14.391502 23.216501 0.000000 0.000000 0.000000 -11.072992 -11.966477 -2.371030 -0.732055 19.515806 -2.500740 0.000000 0.000000 0.000000 0.000000 0.000000 0.000000 
-25.964725 88.130478 22.292486 9.210326 0.313142 -89.794655 0.396383 -9.354817 0.561290 0.193033 1.254292 0.173991 -2.159934 5.856916 -0.060831 -3.270232 8.321656 0.191419 5.912969 6.848550 -3.921720 -67.389221 24.921734 -25.076372 -11.760667 -1.325601 -3.133596 10.027525 -1.330575 3.621891 -11.289490 9.744775 -9.823304 51.701981 54.391510 44.658516 3.663557 -10.789578 5.862912 4.563027 -10.887834 2.201933 0.931097 -5.957711 -10.352750 -4.166113 -4.789037 -9.232511 3.717798 14.309738 22.839535 0.000000 0.000000 0.000000 -11.183838 -12.661350 -2.259233 -0.668001 20.579500 -2.620674 0.000000 0.000000 0.000000 0.000000 0.000000 0.000000 
-26.233904 88.127640 22.434233 9.232878 0.305556 -90.027512 0.291055 -9.269704 0.266976 0.279466 1.180692 0.077940 -2.054711 5.777254 0.038699 -3.374284 8.327214 0.336368 5.916264 6.459010 -4.170350 -66.995300 25.067438 -25.323921 -11.778453 -1.427807 -3.234192 10.122230 -1.450751 3.507790 -11.238531 9.746543 -9.865456 52.138935 54.277718 44.162334 3.727233 -10.706013 5.833361 4.550179 -10.809570 2.131078 0.834527 -5.768271 -10.184803 -4.111009 -4.829200 -8.857236 3.871180 14.225064 22.472717 0.000000 0.000000 0.000000 -11.286058 -13.357926 -2.155167 -0.601096 21.621498 -2.739985 0.000000 0.000000 0.000000 0.000000 0.000000 0.000000 
-26.501265 88.124748 22.567612 9.256460 0.298270 -90.258194 0.190916 -9.186976 -0.022940 0.361953 1.113405 -0.017363 -1.946039 5.698184 0.136640 -3.480381 8.329911 0.480173 5.921235 6.072177 -4.417687 -66.591484 25.228973 -25.577946 -11.785542 -1.541166 -3.337069 10.203205 -1.582584 3.394006 -11.184464 9.743070 -9.903249 52.579868 54.156113 43.656872 3.794914 -10.620015 5.805815 4.537543 -10.729194 2.057489 0.740995 -5.582973 -10.016839 -4.054161 -4.865509 -8.488833 4.015823 14.137677 22.116266 0.000000 0.000000 0.000000 -11.379813 -14.052640 -2.059712 -0.532110 22.633564 -2.857758 0.000000 0.000000 0.000000 0.000000 0.000000 0.000000 
